<svg width="24" height="24" viewBox="0 0 24 24" fill="none" xmlns="http://www.w3.org/2000/svg">
<path d="M9.5 12.12L7.5 15.62M9.5 12.12H7.5C7.23478 12.12 6.98043 12.0146 6.79289 11.8271C6.60536 11.6396 6.5 11.3852 6.5 11.12V5.12M9.5 12.12H16.882C17.0677 12.1199 17.2496 12.0681 17.4075 11.9704C17.5654 11.8728 17.693 11.7331 17.776 11.567L20.276 6.567C20.3522 6.41458 20.3881 6.24522 20.3805 6.07501C20.3728 5.90479 20.3218 5.73935 20.2322 5.59439C20.1426 5.44944 20.0175 5.32977 19.8687 5.24674C19.7199 5.16372 19.5524 5.12009 19.382 5.12H6.5M7.5 15.62H18M7.5 15.62H6.5M6.5 5.12L5.776 3.673C5.69301 3.50692 5.56542 3.36722 5.40753 3.26955C5.24963 3.17188 5.06766 3.1201 4.882 3.12H3.5" stroke="black" stroke-width="1.5" stroke-linecap="round"/>
<path d="M15.75 17.88C15.75 18.4767 15.9871 19.049 16.409 19.471C16.831 19.8929 17.4033 20.13 18 20.13C18.5967 20.13 19.169 19.8929 19.591 19.471C20.0129 19.049 20.25 18.4767 20.25 17.88C20.25 17.2833 20.0129 16.711 19.591 16.289C19.169 15.867 18.5967 15.63 18 15.63C17.4033 15.63 16.831 15.867 16.409 16.289C15.9871 16.711 15.75 17.2833 15.75 17.88ZM3.75 17.88C3.75 18.4767 3.98705 19.049 4.40901 19.471C4.83097 19.8929 5.40326 20.13 6 20.13C6.59674 20.13 7.16903 19.8929 7.59099 19.471C8.01295 19.049 8.25 18.4767 8.25 17.88C8.25 17.2833 8.01295 16.711 7.59099 16.289C7.16903 15.867 6.59674 15.63 6 15.63C5.40326 15.63 4.83097 15.867 4.40901 16.289C3.98705 16.711 3.75 17.2833 3.75 17.88Z" stroke="black" stroke-width="1.5"/>
</svg>
