<svg width="703" height="744" viewBox="0 0 703 744" fill="none" xmlns="http://www.w3.org/2000/svg">
<path d="M449.388 79.2168H614.763V433.521H504.607V373.359C504.607 344.107 480.851 320.395 451.545 320.395H449.424V79.2168H449.388Z" fill="#CCCCCC"/>
<path d="M147.911 286.696C154.628 288.531 160.178 293.33 162.935 299.717L192.701 368.559L268 388.954L268.636 405.009L173.717 401.375L162.122 386.731L125.356 318.207C116.2 302.928 128.609 281.439 147.911 286.696Z" fill="#D6D8D8"/>
<path d="M272.595 387.084L216.705 371.806L214.053 406.633L272.065 406.35L272.595 387.084Z" fill="#676767"/>
<path d="M308.548 397.952C308.548 397.952 310.139 411.255 306.25 413.125C302.361 414.995 301.089 403.527 301.089 403.527L308.548 397.952Z" fill="#676767"/>
<path d="M302.008 402.222C302.008 402.222 304.164 415.736 299.003 417.606C293.842 419.476 294.584 406.95 294.584 406.95L302.008 402.222Z" fill="#676767"/>
<path d="M295.927 406.845C295.927 406.845 295.751 420.112 291.756 419.689C287.797 419.265 288.115 410.832 288.115 410.832L295.892 406.845H295.927Z" fill="#676767"/>
<path d="M290.024 410.726C290.024 410.726 289.812 419.477 285.605 419.3C281.363 419.124 282.706 411.29 282.706 411.29L290.024 410.69V410.726Z" fill="#676767"/>
<path d="M270.015 386.555C270.015 386.555 304.553 389.766 308.23 397.14C311.942 404.515 287.372 415.877 283.272 414.007C279.171 412.137 272.03 406.385 272.03 406.385C268.954 399.222 268.636 394.812 269.98 386.59L270.015 386.555Z" fill="#B0B0B0"/>
<path d="M549.822 79.2168H614.763V433.521H549.822V79.2168Z" fill="#CCCCCC"/>
<path d="M274.257 400.388H387.841V410.726H274.257V400.388Z" fill="#C9C9C9"/>
<path d="M235.653 526.11C238.234 528.157 242.971 526.463 246.259 522.334C249.511 518.206 250.077 513.195 247.496 511.184C244.915 509.138 240.178 510.831 236.89 514.96C233.638 519.088 233.073 524.099 235.653 526.11Z" fill="#D6D6D6"/>
<path d="M260.682 493.754H274.964V567.995H229.361L222.326 544.918L260.682 493.754Z" fill="#C9C9C9"/>
<path d="M241.592 540.436C241.592 545.729 245.87 549.999 251.172 549.999C256.475 549.999 260.753 545.729 260.753 540.436C260.753 535.144 256.475 530.874 251.172 530.874C245.87 530.874 241.592 535.144 241.592 540.436Z" fill="#868686"/>
<path d="M247.531 540.436C247.531 542.447 249.157 544.035 251.137 544.035C253.117 544.035 254.743 542.412 254.743 540.436C254.743 538.46 253.117 536.837 251.137 536.837C249.157 536.837 247.531 538.46 247.531 540.436Z" fill="#D6D6D6"/>
<path d="M328.557 417.889H433.445V433.52H328.557V417.889Z" fill="#C9C9C9"/>
<path d="M328.592 293.119H429.061V346.859H328.592V293.119Z" fill="#C9C9C9"/>
<path d="M338.243 294.53H429.061V241.707H351.571L338.243 294.53Z" fill="#C9C9C9"/>
<path d="M325.906 121.101H449.777V243.401H325.906V121.101Z" fill="#EFEFEF"/>
<path d="M107.999 450.811L114.963 587.049L98.2772 737.754H113.796L150.739 588.496L181.106 450.811H107.999Z" fill="#797878"/>
<path d="M196.413 737.754H179.162L172.445 586.872L107.999 450.811H181.106L206.665 586.872L196.413 737.754Z" fill="#797878"/>
<path d="M179.197 737.754C179.197 737.754 206.842 732.32 217.412 737.754C217.412 737.754 215.856 741.988 179.197 737.754Z" fill="#D6D6D6"/>
<path d="M98.7367 737.754C98.7367 737.754 126.382 732.32 136.952 737.754C136.952 737.754 135.396 741.988 98.7367 737.754Z" fill="#D6D6D6"/>
<path d="M126.77 260.268L164.102 266.019L186.373 322.653L179.161 417.36L186.267 457.762H105.807C105.807 457.762 105.1 350.493 105.984 337.931C109.731 284.403 114.857 293.542 126.735 260.303L126.77 260.268Z" fill="#D6D8D8"/>
<path d="M138.578 233.203C137.482 252.505 129.563 264.184 129.563 264.184L161.062 274.346C161.062 274.346 161.486 259.879 163.218 247.388C158.905 245.8 147.451 235.991 138.613 233.168L138.578 233.203Z" fill="#E6E5E2"/>
<g style="mix-blend-mode:multiply" opacity="0.2">
<path d="M123.412 269.019C124.084 267.36 124.791 265.596 125.498 263.69L130.235 248.271L171.773 268.948L168.768 277.875L176.722 298.129C154.627 286.097 133.169 274.382 123.412 269.019Z" fill="#969696"/>
</g>
<path d="M186.09 204.41C183.969 224.664 179.692 251.34 172.374 253.034C160.355 255.822 137.836 244.777 136.704 233.204C133.558 201.094 133.311 178.193 148.406 172.265C152.683 170.607 190.439 162.667 186.09 204.41Z" fill="#E4E1DC"/>
<path d="M125.498 263.726L130.235 248.306L171.773 268.948L168.768 277.875L125.498 263.726Z" fill="#D6D8D8"/>
<path d="M136.704 233.203C132.427 227.134 109.625 190.613 126.77 173.5C147.345 155.257 187.646 168.983 189.025 180.345C189.696 185.779 184.57 188.743 179.161 188.178C169.44 187.19 154.274 182.215 152.436 188.637C150.597 195.059 146.108 217.783 146.108 217.783L135.361 216.866L136.704 233.203Z" fill="#6B6B6B"/>
<path d="M185.207 212.208C185.207 212.208 185.666 222.9 187.717 225.864C187.717 225.864 190.085 225.44 191.11 226.393C192.135 227.346 188.035 233.203 181.459 232.709L185.171 212.208H185.207Z" fill="#E4E1DC"/>
<g style="mix-blend-mode:multiply" opacity="0.2">
<path d="M182.414 457.762L186.621 480.274H121.963L111.287 457.762H182.414Z" fill="#797878"/>
</g>
<path d="M173.187 215.596C173.187 217.501 174.177 219.054 175.379 219.054C176.581 219.054 177.571 217.501 177.535 215.596C177.535 213.69 176.545 212.138 175.343 212.138C174.141 212.138 173.152 213.69 173.187 215.596Z" fill="#797979"/>
<path d="M167.672 204.339C167.743 205.398 171.031 206.068 175.061 205.857C179.091 205.645 182.308 204.622 182.237 203.563C182.166 202.505 178.879 201.834 174.849 202.046C170.819 202.258 167.602 203.281 167.672 204.339Z" fill="#6B6B6B"/>
<g opacity="0.6">
<path d="M186.444 209.738L185.631 217.572C185.631 217.572 184.747 217.078 183.298 217.96C181.919 218.772 180.293 223.853 175.414 224.347C165.657 225.335 154.875 220.889 157.562 207.304L186.444 209.774V209.738Z" fill="#7A7272"/>
</g>
<path d="M155.335 207.092L187.222 210.198L187.575 206.387L155.123 203.211L155.335 207.092Z" fill="#D6D6D6"/>
<path d="M126.771 215.314C126.771 221.242 132.073 226.076 136.068 226.076C140.063 226.076 141.159 221.277 141.159 215.314C141.159 209.351 137.942 204.552 133.947 204.552C129.952 204.552 126.735 209.351 126.735 215.314H126.771Z" fill="#E4E1DC"/>
<path d="M130.235 215.313C130.235 218.383 132.993 220.889 135.043 220.889C137.093 220.889 137.694 218.383 137.694 215.313C137.694 212.244 136.033 209.738 133.947 209.738C131.861 209.738 130.2 212.244 130.2 215.313H130.235Z" fill="#E6E5E2"/>
<path d="M178.419 244.742C178.419 244.742 176.333 244.707 174.071 243.401C174.248 244.46 174.637 247.847 176.227 249.506C176.227 249.506 177.641 246.965 178.419 244.742Z" fill="#E6E5E2"/>
<path d="M181.495 188.178C181.495 188.178 206.453 188.073 191.287 161.114C191.287 161.114 189.767 170.218 181.495 167.289C177.005 165.701 165.162 163.161 153.991 162.49C144.588 161.926 128.291 164.502 128.715 171.947L181.495 188.214V188.178Z" fill="#6B6B6B"/>
<path d="M189.095 167.713C189.095 167.713 191.322 155.61 172.303 155.328C172.303 155.328 179.656 161.433 177.606 167.713C177.606 167.713 188.565 173.43 189.095 167.713Z" fill="#6B6B6B"/>
<path d="M179.338 167.007C179.338 167.007 170.288 153.987 159.754 160.55C159.754 160.55 166.93 162.808 165.375 167.007H179.303H179.338Z" fill="#6B6B6B"/>
<path d="M164.526 237.014C164.773 237.014 165.056 236.873 165.198 236.662L167.46 233.38C167.708 232.992 167.602 232.498 167.248 232.251C166.894 232.004 166.364 232.11 166.117 232.463L163.854 235.744C163.607 236.132 163.713 236.626 164.066 236.873C164.208 236.979 164.385 237.014 164.526 237.014Z" fill="#7E7E7E"/>
<path d="M179.515 241.777C177.041 241.354 170.819 239.872 165.304 235.426C164.95 235.144 164.88 234.614 165.198 234.262C165.481 233.909 166.011 233.838 166.364 234.12C171.667 238.39 177.889 239.801 180.045 240.154C179.904 240.684 179.727 241.213 179.55 241.742L179.515 241.777Z" fill="#7E7E7E"/>
<g style="mix-blend-mode:multiply" opacity="0.3">
<path d="M157.562 207.269L159.365 207.48C157.137 219.866 165.905 224.1 174.955 223.182C179.868 222.688 182.414 215.984 183.793 215.173C184.818 214.573 185.56 214.643 185.914 214.714L185.631 217.572C185.631 217.572 184.747 217.078 183.298 217.96C181.919 218.772 180.293 223.853 175.414 224.347C165.657 225.335 154.875 220.889 157.562 207.304V207.269Z" fill="#7A7272"/>
</g>
<path d="M267.045 432.815H614.763V482.462H267.045V432.815Z" fill="#868686"/>
<path d="M274.292 445.342H614.763V739.625H274.292V445.342Z" fill="#F1F1F1"/>
<path d="M411.81 227.381C348.903 227.381 297.907 176.48 297.907 113.691C297.907 50.9011 348.903 0 411.81 0C474.716 0 525.712 50.9011 525.712 113.691C525.712 176.48 474.716 227.381 411.81 227.381Z" fill="#868686"/>
<path d="M374.859 122.375C370.042 102.005 382.681 81.5938 403.09 76.7859C423.498 71.9781 443.947 84.594 448.763 104.964C453.58 125.334 440.941 145.745 420.533 150.553C400.124 155.361 379.676 142.745 374.859 122.375Z" fill="#D6D6D6"/>
<path d="M398.588 35.6383C398.588 42.9424 404.527 48.8351 411.81 48.8351C419.092 48.8351 425.031 42.9071 425.031 35.6383C425.031 28.3694 419.092 22.4414 411.81 22.4414C404.527 22.4414 398.588 28.3694 398.588 35.6383Z" fill="#D6D6D6"/>
<path d="M398.588 191.708C398.588 199.012 404.527 204.904 411.81 204.904C419.092 204.904 425.031 198.976 425.031 191.708C425.031 184.439 419.092 178.511 411.81 178.511C404.527 178.511 398.588 184.439 398.588 191.708Z" fill="#D6D6D6"/>
<path d="M411.81 139.132C397.733 139.132 386.321 127.742 386.321 113.691C386.321 99.6403 397.733 88.25 411.81 88.25C425.887 88.25 437.298 99.6403 437.298 113.691C437.298 127.742 425.887 139.132 411.81 139.132Z" fill="#C9C9C9"/>
<path d="M336.865 87.8973C343.263 91.3906 351.323 89.0264 354.823 82.6397C358.323 76.253 355.954 68.2078 349.556 64.7145C343.157 61.2212 335.097 63.5854 331.597 69.9721C328.097 76.3588 330.466 84.404 336.865 87.8973Z" fill="#D6D6D6"/>
<path d="M474.099 162.667C480.498 166.16 488.558 163.796 492.058 157.409C495.557 151.023 493.189 142.977 486.79 139.484C480.392 135.991 472.331 138.355 468.832 144.742C465.332 151.128 467.7 159.174 474.099 162.667Z" fill="#D6D6D6"/>
<path d="M352.136 165.772C358.358 161.961 360.303 153.81 356.485 147.6C352.667 141.39 344.5 139.449 338.279 143.26C332.057 147.071 330.112 155.222 333.93 161.432C337.748 167.642 345.915 169.583 352.136 165.772Z" fill="#D6D6D6"/>
<path d="M485.376 84.0858C491.598 80.2749 493.542 72.1239 489.724 65.9136C485.906 59.7033 477.74 57.7626 471.518 61.5735C465.297 65.3843 463.352 73.5353 467.17 79.7456C470.988 85.9559 479.154 87.8966 485.376 84.0858Z" fill="#D6D6D6"/>
<path d="M411.81 0C474.7 0 525.712 50.8821 525.712 113.691C525.712 176.499 474.735 227.381 411.81 227.381C348.884 227.381 297.907 176.499 297.907 113.691C297.907 50.8821 348.919 0 411.81 0ZM411.81 222.653C472.119 222.653 521.011 173.853 521.011 113.655C521.011 53.4579 472.119 4.693 411.81 4.693C351.5 4.693 302.609 53.4932 302.609 113.691C302.609 173.888 351.5 222.688 411.81 222.688V222.653Z" fill="#D6D6D6"/>
<path d="M429.061 281.263V294.53H338.243L341.602 281.263H429.061Z" fill="#868686"/>
<path d="M380.983 346.895H394.205V384.05H380.983V346.895Z" fill="#868686"/>
<path d="M351.818 346.895H365.04V365.49H351.818V346.895Z" fill="#868686"/>
<path d="M402.3 346.895H411.81V359.033H402.3V346.895Z" fill="#868686"/>
<path d="M560.922 677.945H564.458V538.672H251.173V542.2H560.922V677.945Z" fill="#D6D6D6"/>
<path d="M444.51 631.086H579.128V700.811H444.51V631.086Z" fill="#868686"/>
<path d="M480.462 534.015H503.406V547.212H480.462V534.015Z" fill="#868686"/>
<path d="M333.718 534.015H356.661V547.212H333.718V534.015Z" fill="#868686"/>
<path d="M556.079 581.015H569.301V603.915H556.079V581.015Z" fill="#868686"/>
<g style="mix-blend-mode:multiply" opacity="0.2">
<path d="M186.373 322.653L164.985 414.185L171.349 445.342L105.842 457.762H186.302L179.161 417.36L186.373 322.653Z" fill="#D6D8D8"/>
</g>
<path d="M459.251 671.876C455.971 671.876 453.312 669.221 453.312 665.948C453.312 662.674 455.971 660.02 459.251 660.02C462.531 660.02 465.19 662.674 465.19 665.948C465.19 669.221 462.531 671.876 459.251 671.876Z" fill="#D6D6D6"/>
<path d="M274.257 406.845H387.841V410.726H274.257V406.845Z" fill="#868686"/>
<path d="M146.497 290.226C153.214 292.061 158.764 296.859 161.521 303.246L191.287 372.089L266.586 392.484L267.222 408.539L172.303 404.904L161.91 396.4L123.978 321.736C114.822 306.457 127.23 284.968 146.532 290.226H146.497Z" fill="#BBBBBB"/>
<path d="M271.181 390.613L215.291 375.299L212.639 410.161L270.651 409.879L271.181 390.613Z" fill="#9E9E9E"/>
<path d="M307.134 401.446C307.134 401.446 308.725 414.749 304.836 416.619C300.947 418.489 299.675 407.021 299.675 407.021L307.134 401.446Z" fill="#9E9E9E"/>
<path d="M300.594 405.751C300.594 405.751 302.75 419.265 297.589 421.136C292.428 423.006 293.17 410.479 293.17 410.479L300.594 405.751Z" fill="#9E9E9E"/>
<path d="M294.549 410.373C294.549 410.373 294.372 423.64 290.377 423.217C286.418 422.794 286.736 414.36 286.736 414.36L294.513 410.373H294.549Z" fill="#9E9E9E"/>
<path d="M288.645 414.255C288.645 414.255 288.433 423.006 284.226 422.829C280.019 422.653 281.327 414.82 281.327 414.82L288.645 414.22V414.255Z" fill="#9E9E9E"/>
<path d="M268.636 390.049C268.636 390.049 303.175 393.26 306.851 400.635C310.563 408.009 285.994 419.371 281.893 417.501C277.828 415.631 270.651 409.879 270.651 409.879C267.576 402.716 267.258 398.306 268.601 390.084L268.636 390.049Z" fill="#BDBDBD"/>
<g style="mix-blend-mode:multiply" opacity="0.2">
<path d="M161.875 396.4L172.268 404.904L180.081 405.186L179.515 412.49L169.51 412.102L159.117 403.598L121.185 328.934C116.801 321.594 117.367 312.843 121.291 306.28C120.301 311.361 121.008 316.866 123.942 321.735L161.875 396.4Z" fill="#969696"/>
</g>
</svg>
