<svg width="680" height="664" viewBox="0 0 680 664" fill="none" xmlns="http://www.w3.org/2000/svg">
<path d="M473.517 610.148C465.711 609.998 458.072 607.864 451.322 603.948C422.964 588.55 413.877 541.551 403.354 487.152C399.019 464.747 394.528 441.612 388.392 418.138C374.578 365.511 350.477 300.196 286.188 261.82L288.173 258.512C353.662 297.591 378.13 363.844 392.126 417.174C398.314 440.752 402.806 464.069 407.14 486.423C417.585 539.857 426.411 586.023 453.176 600.587C475.319 612.623 489.733 603.791 506.445 593.553C518.587 586.101 531.356 578.416 547.702 578.702V582.558C532.192 582.219 520.206 589.671 508.534 596.835C497.697 603.348 486.704 610.148 473.517 610.148Z" fill="#ABABAB"/>
<path d="M378.051 169.854L348.701 271.538L287.181 335.576L295.354 347.092L382.046 294.595L386.72 281.699L416.567 192.025L378.051 169.854Z" fill="#9E9E9E"/>
<path d="M284.413 335.707L316.766 297.357L342.8 322.342L294.335 349.75L284.413 335.707Z" fill="#9E9E9E"/>
<path d="M284.413 335.707C284.413 335.707 266.134 343.366 263.915 348.473C261.695 353.579 277.362 363.662 281.697 362.385C286.032 361.108 294.335 349.749 294.335 349.749C294.335 349.749 290.732 333.935 284.413 335.707Z" fill="#9E9E9E"/>
<path d="M135.521 344.278H111.811V355.82H135.521V344.278Z" fill="#ABABAB"/>
<path d="M234.173 266.562H100.74V346.18H234.173V266.562Z" fill="#787878"/>
<path d="M234.173 266.562H100.74V317.418H234.173V266.562Z" fill="#4A4A4A"/>
<path d="M227.802 306.346C227.802 307.568 227.438 308.763 226.757 309.779C226.076 310.795 225.108 311.586 223.975 312.052C222.843 312.519 221.597 312.64 220.396 312.399C219.195 312.159 218.092 311.568 217.228 310.702C216.363 309.836 215.776 308.734 215.54 307.534C215.304 306.335 215.431 305.092 215.903 303.965C216.375 302.837 217.173 301.874 218.194 301.199C219.215 300.524 220.414 300.166 221.639 300.171C223.276 300.178 224.843 300.831 225.998 301.989C227.153 303.146 227.802 304.712 227.802 306.346Z" fill="#787878"/>
<path d="M234.173 290.219H100.74V291.99H234.173V290.219Z" fill="#787878"/>
<path d="M209.967 309.316C210.007 309.763 209.954 310.213 209.81 310.638C209.666 311.063 209.435 311.454 209.132 311.785C208.829 312.116 208.46 312.381 208.048 312.562C207.637 312.743 207.192 312.836 206.742 312.836C206.292 312.836 205.848 312.743 205.436 312.562C205.025 312.381 204.655 312.116 204.352 311.785C204.049 311.454 203.818 311.063 203.674 310.638C203.53 310.213 203.477 309.763 203.517 309.316C203.59 308.512 203.961 307.765 204.558 307.221C205.154 306.677 205.934 306.375 206.742 306.375C207.551 306.375 208.33 306.677 208.926 307.221C209.523 307.765 209.894 308.512 209.967 309.316Z" fill="#787878"/>
<path d="M233.39 266.562H230.308V346.18H233.39V266.562Z" fill="#ABABAB"/>
<g opacity="0.2">
<path d="M164.95 327.11C184.664 327.11 200.645 313.451 200.645 296.602C200.645 279.753 184.664 266.094 164.95 266.094C145.236 266.094 129.254 279.753 129.254 296.602C129.254 313.451 145.236 327.11 164.95 327.11Z" fill="#FFFCE6"/>
</g>
<path d="M246.42 256.167H233.39V356.601H246.42V256.167Z" fill="#787878"/>
<path d="M190.305 265.286C183.15 275.863 176.047 283.523 174.454 282.481C172.862 281.439 177.327 272.06 184.455 261.378C191.584 250.696 198.713 243.141 200.332 244.183C201.951 245.225 197.459 254.708 190.305 265.286Z" fill="#FE000D"/>
<g opacity="0.6">
<path d="M191.506 261.456C185.526 270.288 179.834 276.88 178.763 276.15C177.692 275.421 181.687 267.709 187.641 258.877C193.595 250.045 199.313 243.454 200.384 244.183C201.454 244.913 197.407 252.624 191.506 261.456Z" fill="#BABABA"/>
</g>
<path d="M198.895 246.267C200.462 247.336 195.553 257.34 187.876 268.881L188.581 267.839C196.989 256.011 201.924 245.277 200.332 244.183C198.739 243.089 191.506 250.775 182.758 263.905L182.053 264.947C189.887 253.51 197.329 245.225 198.895 246.267Z" fill="#FE000D"/>
<path d="M193.647 256.167C189.417 262.42 185.552 267.188 185.004 266.823C184.455 266.458 187.458 261.117 191.688 254.838C195.919 248.56 199.783 243.818 200.332 244.183C200.88 244.548 197.877 249.914 193.647 256.167Z" fill="#787878"/>
<path d="M196.467 251.973C193.856 255.933 191.245 258.825 190.67 258.46C190.096 258.095 191.845 254.604 194.509 250.644C197.172 246.684 199.731 243.792 200.332 244.157C200.932 244.522 199.13 248.039 196.467 251.973Z" fill="white"/>
<path d="M287.468 266.041L234.643 227.744C232.017 225.818 228.733 225.011 225.512 225.5C222.291 225.988 219.395 227.732 217.461 230.349L200.227 250.8L194.43 246.606L209.184 224.331C212.701 219.508 217.993 216.275 223.897 215.342C229.802 214.409 235.836 215.852 240.675 219.354L293.5 257.652L287.468 266.041Z" fill="#ABABAB"/>
<path d="M291.045 335.551H254.749V356.419H291.045V335.551Z" fill="#ABABAB"/>
<path d="M393.222 657.226H412.049L419.361 492.65L489.681 344.278H409.934L382.046 492.65L393.222 657.226Z" fill="#C1C1C1"/>
<path d="M412.467 657.201C412.467 657.201 382.334 651.261 370.688 657.201C370.792 657.201 372.489 661.812 412.467 657.201Z" fill="#ABABAB"/>
<path d="M489.681 344.278L482.108 492.858L500.283 657.226H483.336L443.071 494.395L409.934 344.278H489.681Z" fill="#C1C1C1"/>
<path d="M500.282 657.201C500.282 657.201 470.123 651.261 458.503 657.201C458.607 657.201 460.305 661.812 500.282 657.201Z" fill="#ABABAB"/>
<path d="M411.788 130.357L371.21 154.17L373.821 223.627L412.049 307.778L404.216 351.833H492.057C492.057 351.833 468.556 214.144 462.89 201.638C438.423 148.464 411.788 130.357 411.788 130.357Z" fill="#CDCDCD"/>
<g style="mix-blend-mode:multiply" opacity="0.3">
<path d="M412.415 130.801L409.804 127.57C399.045 135.699 372.228 156.932 372.777 168.265L396.278 157.844L404.111 163.862L414.556 223.08L401.5 284.279L404.111 290.193H416.619L435.916 249.55L449.494 296.445C449.494 296.445 432.626 302.203 433.07 304.261C433.514 306.32 451.218 306.867 451.218 306.867L451.557 315.021C451.557 315.021 441.608 317.079 441.817 318.799C442.026 320.518 451.949 320.154 451.949 320.154L453.228 344.357L404.32 351.86H492.057C492.057 351.86 468.556 214.17 462.89 201.665C440.616 153.18 416.515 133.849 412.415 130.801Z" fill="#CDCDCD"/>
</g>
<path d="M388.34 99.3027C394.305 112.137 401.717 124.252 410.43 135.412L382.125 157.844C382.125 157.844 376.119 143.254 369.565 131.165C373.429 127.935 380.401 105.555 388.34 99.3027Z" fill="#ECEBEB"/>
<path d="M329.718 96.0719C339.666 115.924 353.897 140.935 361.992 139.867C375.362 138.121 395.938 118.243 392.596 105.998C383.456 72.1293 373.508 49.0724 355.804 48.6816C350.79 48.7598 309.193 55.1428 329.718 96.0719Z" fill="#ECEBEB"/>
<path d="M414.399 133.38L403.641 119.441L365.126 158.573L372.777 168.343L414.399 133.38Z" fill="#CDCDCD"/>
<path d="M392.57 105.998C400.403 101.908 399.516 52.5897 378.339 41.7777C345.254 30.9657 314.494 60.5098 317.419 72.6504C318.829 78.4342 325.252 79.4763 330.475 76.871C340.006 72.1294 353.584 61.2392 357.919 67.0751C362.253 72.911 375.623 94.4046 375.623 94.4046L383.9 90.1059L392.57 105.998Z" fill="#8F8F8F"/>
<path d="M402.701 160.449C399.381 162.026 396.53 164.439 394.429 167.449C392.327 170.46 391.048 173.964 390.716 177.618L384.527 247.258L294.962 243.819L291.019 262.629L397.374 291.287L413.198 283.758L432.13 197.783C433.298 192.456 433.301 186.941 432.139 181.613C430.976 176.285 428.675 171.27 425.393 166.91L424.427 165.66C421.96 162.428 418.452 160.145 414.494 159.196C410.535 158.246 406.37 158.689 402.701 160.449Z" fill="#868686"/>
<path d="M358.519 243.35L352.957 284.565L291.019 262.733L294.649 241.083L358.519 243.35Z" fill="#BDBDBD"/>
<path d="M314.259 376.376H80.9727V659.545H314.259V376.376Z" fill="#EEEEEE"/>
<path d="M195.214 239.233L207.069 247.336L199.392 255.386L190.905 249.576L195.214 239.233Z" fill="#787878"/>
<path d="M394.476 84.4523C396.748 90.5226 393.196 97.4787 389.253 98.9898C385.31 100.501 382.125 96.0458 379.775 90.1057C377.425 84.1657 378.939 77.8869 382.986 76.3758C387.034 74.8648 392.178 78.3819 394.476 84.4523Z" fill="#ECEBEB"/>
<path d="M390.925 85.7815C391.439 87.1636 391.442 88.6832 390.935 90.0678C390.428 91.4524 389.443 92.6114 388.157 93.3369C386.068 94.1185 384.501 91.7998 383.326 88.6474C382.151 85.495 382.882 82.3165 384.971 81.5349C387.06 80.7533 389.75 82.6552 390.925 85.7815Z" fill="#ECEBEB"/>
<path d="M241.928 256.167H235.74V346.024H241.928V256.167Z" fill="#4A4A4A"/>
<path d="M324.782 355.819H69.4311V378.538H324.782V355.819Z" fill="#BDBDBD"/>
<path d="M69.4311 355.846H324.678C324.678 355.846 153.539 359.519 69.4311 355.846Z" fill="#FE000D"/>
<path d="M258.327 241.63C258.327 241.63 248.378 252.338 250.493 256.48C252.608 260.622 261.225 251.269 261.225 251.269L258.327 241.63Z" fill="#9E9E9E"/>
<path d="M261.356 249.576C261.356 249.576 250.911 260.128 254.149 265.208C257.387 270.288 264.881 258.617 264.881 258.617L261.356 249.576Z" fill="#9E9E9E"/>
<path d="M263.758 257.548C263.758 257.548 255.402 269.376 259.188 271.538C262.975 273.701 268.093 266.041 268.093 266.041L263.758 257.548Z" fill="#9E9E9E"/>
<path d="M266.474 264.66C266.474 264.66 261.042 272.476 264.881 275.081C268.719 277.687 272.453 269.871 272.453 269.871L266.474 264.66Z" fill="#9E9E9E"/>
<path d="M294.649 241.213C294.649 241.213 267.231 236.941 259.11 241.213C250.989 245.486 265.508 271.096 270.312 272.06C275.117 273.024 291.019 262.863 291.019 262.863C293.918 254.761 296.659 249.967 294.649 241.213Z" fill="#BDBDBD"/>
<path d="M397.087 89.3506C397.087 89.3506 400.56 100.97 406.749 95.942C406.885 97.692 406.399 99.434 405.378 100.863C404.356 102.292 402.863 103.317 401.161 103.758C401.699 104.546 402.444 105.172 403.314 105.567C404.184 105.962 405.146 106.111 406.096 105.998C406.096 105.998 397.896 114.778 392.596 105.998L397.087 89.3506Z" fill="#8F8F8F"/>
<path d="M552.298 649.463C552.298 649.463 553.891 659.884 555.98 659.884C558.069 659.884 561.516 649.463 561.516 649.463H552.298Z" fill="#ABABAB"/>
<path d="M662.439 649.463C662.439 649.463 660.846 659.884 658.757 659.884C656.668 659.884 653.248 649.463 653.248 649.463H662.439Z" fill="#ABABAB"/>
<path d="M543.812 633.805H541.096V636.202H543.812V633.805Z" fill="#ABABAB"/>
<g style="mix-blend-mode:multiply" opacity="0.2">
<path d="M411.605 351.834L417.951 380.675H487.827L489.289 351.834H411.605Z" fill="#C1C1C1"/>
</g>
<g clip-path="url(#clip0_7176_2817)">
<path d="M325.819 34.1946C325.819 34.1946 330.901 27.2384 342.271 25.7314C353.642 24.2244 373.124 23.7488 388.472 43.902L392.541 45.4915C392.541 45.4915 400.754 58.9914 396.51 62.2233C392.266 65.4552 372.57 72.4486 367.677 66.7667C362.784 61.0848 325.819 34.1946 325.819 34.1946Z" fill="#9A9A9A"/>
<path d="M317.77 25.4638C317.77 25.4638 318.068 26.4995 318.618 26.8256C319.168 27.1518 356.834 46.4441 361.722 53.4399C366.611 60.4357 372.24 77.5759 368.044 84.8821C363.849 92.1882 355.962 109.505 355.962 109.505C355.962 109.505 356.138 112.759 356.963 115.31C357.787 117.861 345.821 132.415 345.821 132.415C345.821 132.415 324.716 155.066 323.41 152.746C323.41 152.746 325.576 149.649 319.915 146.464C314.254 143.279 302.524 130.307 307.077 120.437L292.394 81.8657L288.07 79.4164C288.07 79.4164 286.993 73.4517 289.668 70.7992C292.342 68.1467 297.118 63.7047 299.518 54.7041C301.918 45.7035 309.797 32.9066 317.77 25.4638Z" fill="#D4D2D2"/>
<path d="M292.394 81.8653L308.442 123.281L310.172 122.983C310.172 122.983 333.028 98.4513 334.784 89.3284L331.948 81.0767L328.862 78.5738L306.376 78.1283L292.394 81.8653Z" fill="#F2F2F2"/>
<path d="M356.447 76.8207C362.429 73.962 364.97 66.8143 362.122 60.8558C359.275 54.8972 352.117 52.3843 346.135 55.2429C340.154 58.1016 337.613 65.2493 340.461 71.2078C343.308 77.1664 350.466 79.6793 356.447 76.8207Z" fill="white"/>
<path opacity="0.29" d="M355.282 74.403C359.888 72.2016 361.845 66.6974 359.652 62.1088C357.459 57.5203 351.947 55.5852 347.341 57.7865C342.735 59.9879 340.778 65.4922 342.971 70.0807C345.164 74.6692 350.676 76.6044 355.282 74.403Z" fill="#858585"/>
<path d="M359.163 51.3776L352.341 59.8018L357.312 63.8034L364.135 55.3793L359.163 51.3776Z" fill="#858585"/>
<path d="M344.735 69.1931L337.913 77.6172L342.885 81.6188L349.707 73.1947L344.735 69.1931Z" fill="#858585"/>
<path d="M357.949 96.1253C361.981 94.1984 363.694 89.3803 361.774 85.3638C359.855 81.3473 355.03 79.6534 350.998 81.5803C346.966 83.5072 345.253 88.3253 347.173 92.3418C349.092 96.3583 353.917 98.0523 357.949 96.1253Z" fill="#858585"/>
<path d="M357.018 94.177C359.97 92.7663 361.223 89.239 359.818 86.2986C358.413 83.3581 354.881 82.118 351.929 83.5287C348.977 84.9394 347.723 88.4667 349.129 91.4071C350.534 94.3475 354.066 95.5876 357.018 94.177Z" fill="white"/>
<path d="M363.576 89.9424L346.59 83.9785L345.301 87.6043L362.288 93.5683L363.576 89.9424Z" fill="#868686"/>
<path d="M288.07 79.4168C288.07 79.4168 316.875 73.701 328.885 77.3856C328.885 77.3856 331.742 77.5907 334.492 83.3448C337.242 89.0989 336.096 90.8247 333.788 95.0691C331.48 99.3134 310.312 126.91 306.161 126.968C306.067 126.969 305.367 123.059 307.077 120.438L308.442 123.282C308.442 123.282 324.404 107.604 332.971 92.1218C332.971 92.1218 334.621 88.9769 332.33 84.1818C330.038 79.3868 327.875 78.4571 322.077 79.1667C316.278 79.8763 292.394 81.8661 292.394 81.8661L288.07 79.4168Z" fill="#868686"/>
<path d="M388.472 43.9016L389.369 48.8722C389.369 48.8722 386.845 55.4324 367.302 65.5319C367.302 65.5319 384.623 59.9755 392.937 49.3268L392.541 45.4911L388.472 43.9016Z" fill="#868686"/>
</g>
<g clip-path="url(#clip1_7176_2817)">
<path d="M705 498.184H542V626.169H705V498.184Z" fill="#EEEEEE"/>
<path d="M688.553 626.047V618.828H556.238V626.047H688.553Z" stroke="#4A4A4A" stroke-width="4" stroke-miterlimit="10"/>
<path d="M565.075 626.169H547.401V634H565.075V626.169Z" fill="#4A4A4A"/>
<path d="M559.675 497.939H542V512.867H559.675V497.939Z" fill="#4A4A4A"/>
<path d="M568.512 479.341H559.675V497.939H568.512V479.341Z" fill="#1A1A1A"/>
<path d="M688.798 479.341H679.961V497.939H688.798V479.341Z" fill="#1A1A1A"/>
<path d="M665.723 471.021H581.277V478.362H665.723V471.021Z" fill="#C1C1C1"/>
<path d="M559.675 611.241H542V626.169H559.675V611.241Z" fill="#4A4A4A"/>
<path d="M550.837 511.888H542V611.242H550.837V511.888Z" fill="#4A4A4A"/>
<path d="M688.553 508.217V505.525H556.238V508.217H688.553Z" fill="#4A4A4A"/>
<path d="M567.039 624.946C568.395 624.946 569.494 623.85 569.494 622.499C569.494 621.147 568.395 620.052 567.039 620.052C565.683 620.052 564.584 621.147 564.584 622.499C564.584 623.85 565.683 624.946 567.039 624.946Z" fill="#4A4A4A"/>
<path d="M621.782 624.946C623.137 624.946 624.236 623.85 624.236 622.499C624.236 621.147 623.137 620.052 621.782 620.052C620.426 620.052 619.327 621.147 619.327 622.499C619.327 623.85 620.426 624.946 621.782 624.946Z" fill="#4A4A4A"/>
<path d="M679.961 624.946C681.317 624.946 682.416 623.85 682.416 622.499C682.416 621.147 681.317 620.052 679.961 620.052C678.605 620.052 677.506 621.147 677.506 622.499C677.506 623.85 678.605 624.946 679.961 624.946Z" fill="#4A4A4A"/>
<path d="M548.383 602.432H542V604.145H548.383V602.432Z" fill="#CCCCCC"/>
<path d="M548.383 599.251H542V600.964H548.383V599.251Z" fill="#CCCCCC"/>
<path d="M548.383 596.069H542V597.782H548.383V596.069Z" fill="#CCCCCC"/>
<path d="M548.383 592.888H542V594.601H548.383V592.888Z" fill="#CCCCCC"/>
<path d="M548.383 589.707H542V591.42H548.383V589.707Z" fill="#CCCCCC"/>
<path d="M548.383 586.525H542V588.238H548.383V586.525Z" fill="#CCCCCC"/>
<path d="M548.383 583.344H542V585.057H548.383V583.344Z" fill="#CCCCCC"/>
<path d="M548.383 580.163H542V581.876H548.383V580.163Z" fill="#CCCCCC"/>
<path d="M548.383 576.981H542V578.694H548.383V576.981Z" fill="#CCCCCC"/>
<path d="M548.383 573.801H542V575.514H548.383V573.801Z" fill="#CCCCCC"/>
<path d="M548.383 570.619H542V572.332H548.383V570.619Z" fill="#CCCCCC"/>
<path d="M548.383 567.438H542V569.15H548.383V567.438Z" fill="#CCCCCC"/>
<path d="M548.383 564.257H542V565.97H548.383V564.257Z" fill="#CCCCCC"/>
<path d="M548.383 561.075H542V562.788H548.383V561.075Z" fill="#CCCCCC"/>
<path d="M548.383 557.894H542V559.607H548.383V557.894Z" fill="#CCCCCC"/>
<path d="M548.383 554.713H542V556.426H548.383V554.713Z" fill="#CCCCCC"/>
<path d="M548.383 551.531H542V553.244H548.383V551.531Z" fill="#CCCCCC"/>
<path d="M548.383 548.35H542V550.063H548.383V548.35Z" fill="#CCCCCC"/>
<path d="M548.383 545.169H542V546.882H548.383V545.169Z" fill="#CCCCCC"/>
<path d="M548.383 541.987H542V543.7H548.383V541.987Z" fill="#CCCCCC"/>
<path d="M548.383 538.807H542V540.52H548.383V538.807Z" fill="#CCCCCC"/>
<path d="M548.383 535.625H542V537.338H548.383V535.625Z" fill="#CCCCCC"/>
<path d="M548.383 532.443H542V534.156H548.383V532.443Z" fill="#CCCCCC"/>
<path d="M548.383 529.263H542V530.976H548.383V529.263Z" fill="#CCCCCC"/>
<path d="M548.383 526.081H542V527.794H548.383V526.081Z" fill="#CCCCCC"/>
<path d="M542 497.939L559.675 470H581.277V479.559H559.675V497.939H542Z" fill="#4A4A4A"/>
<path d="M704.963 497.939L687.288 470H665.723V479.559H687.288V497.939H704.963Z" fill="#4A4A4A"/>
</g>
<defs>
<clipPath id="clip0_7176_2817">
<rect width="114.216" height="117.677" fill="white" transform="translate(268 49.249) rotate(-25.5432)"/>
</clipPath>
<clipPath id="clip1_7176_2817">
<rect width="163" height="164" fill="white" transform="translate(542 470)"/>
</clipPath>
</defs>
</svg>
