<svg width="211" height="52" viewBox="0 0 211 52" fill="none" xmlns="http://www.w3.org/2000/svg">
<path d="M91.1172 0.852905H111.411V51.147H91.1172V0.852905ZM96.7643 15.7647C94.9995 15.7647 93.5878 17.1764 93.5878 18.9411V32.9706C93.5878 34.7353 94.9995 36.147 96.7643 36.147H109.029V33.7647C104.97 33.7647 100.911 33.7647 96.7643 33.7647C96.3231 33.7647 95.9701 33.4117 95.9701 32.9706V27.147H107.794V24.7647H95.9701V18.9411C95.9701 18.5 96.3231 18.147 96.7643 18.147C100.823 18.147 104.352 18.147 108.411 18.147V15.7647H96.7643Z" fill="#FE000D"/>
<path d="M137.176 36.2352H134.794V18.9411C134.794 17.1764 136.206 15.7646 137.97 15.7646H146.176C149 15.7646 151.382 18.147 151.382 20.9705V23.1764C151.382 26.0882 149 28.3823 146.176 28.3823H137.176V36.2352ZM80.5292 18.147H73.4703C73.2939 18.147 73.0292 18.2352 72.9409 18.4117C72.7645 18.5882 72.6762 18.7646 72.6762 18.9411V32.9705C72.6762 33.147 72.7645 33.4117 72.9409 33.4999C73.1174 33.6764 73.2939 33.7646 73.4703 33.7646H80.5292C82.1174 33.7646 83.6174 33.147 84.6762 32.0882C85.735 31.0293 86.3527 29.6176 86.3527 27.9411V23.9705C86.3527 22.3823 85.735 20.8823 84.6762 19.8235C83.5292 18.8529 82.1174 18.147 80.5292 18.147ZM14.9703 15.7646C15.588 15.7646 16.2056 16.0293 16.6468 16.4705C17.2644 17.0882 17.5292 18.147 17.7056 18.9411L20.6174 31.4705C20.8821 32.2646 21.1468 33.7646 21.3233 33.7646C21.4115 33.7646 21.7644 32.1764 22.0292 31.4705L26.5292 15.7646H29.088L24.1468 33.0587C23.8821 33.8529 23.7056 34.9117 23.088 35.5293C22.1174 36.4999 20.6174 36.4999 19.6468 35.5293C19.0292 34.9117 18.7644 33.8529 18.588 33.0587L15.588 20.6176C15.4115 19.8235 15.0586 18.2352 14.9703 18.2352C14.8821 18.2352 14.5292 19.8235 14.3527 20.6176L11.3527 33.0587C11.1762 33.8529 10.9115 34.9117 10.2939 35.5293C9.32327 36.4999 7.82327 36.4999 6.85268 35.5293C6.23504 34.9117 6.05857 33.9411 5.79386 33.0587L0.940918 15.7646H3.49974L7.99974 31.4705C8.26445 32.2646 8.52915 33.7646 8.70562 33.7646C8.79386 33.7646 9.1468 32.1764 9.4115 31.4705L12.235 18.9411C12.4115 18.147 12.6762 17.0882 13.2939 16.4705C13.735 16.0293 14.3527 15.7646 14.9703 15.7646ZM34.4703 24.7646H46.2939V27.147H34.4703V32.9705C34.4703 33.2352 34.5586 33.4117 34.735 33.4999C34.9115 33.6764 35.088 33.7646 35.2645 33.7646C39.3233 33.7646 43.3821 33.7646 47.5292 33.7646V36.147H35.2645C34.3821 36.147 33.588 35.794 32.9703 35.1764C32.3527 34.5587 31.9997 33.7646 31.9997 32.8823V18.9411C31.9997 18.0587 32.3527 17.2646 32.9703 16.647C33.588 16.0293 34.3821 15.6764 35.2645 15.6764H46.9115V18.0587C42.8527 18.0587 39.3233 18.0587 35.2645 18.0587C35.088 18.0587 34.8233 18.147 34.735 18.3235C34.5586 18.4999 34.4703 18.7646 34.4703 18.9411V24.7646ZM66.588 33.7646V36.147H54.3233C53.4409 36.147 52.6468 35.794 52.0292 35.1764C51.4115 34.5587 51.0586 33.7646 51.0586 32.8823V15.7646H53.4409V32.9705C53.4409 33.2352 53.5292 33.4117 53.7056 33.4999C53.8821 33.6764 54.0586 33.7646 54.235 33.7646C58.3821 33.7646 62.5292 33.7646 66.588 33.7646ZM73.4703 15.7646H80.5292C82.8233 15.7646 84.8527 16.647 86.3527 18.147C87.8527 19.647 88.735 21.6764 88.735 23.9705V27.9411C88.735 30.2352 87.8527 32.2646 86.3527 33.7646C84.8527 35.2646 82.8233 36.147 80.5292 36.147H73.4703C72.588 36.147 71.7939 35.794 71.1762 35.1764C70.5586 34.5587 70.2056 33.7646 70.2056 32.8823V18.9411C70.2056 18.0587 70.5586 17.2646 71.1762 16.647C71.7939 16.1176 72.588 15.7646 73.4703 15.7646ZM192.5 15.7646V18.147H200.353V36.2352H202.735V18.147H210.588V15.7646C204.5 15.7646 198.5 15.7646 192.5 15.7646ZM184.735 28.3823L190.647 36.2352H187.47L181.559 28.3823H176.441V36.2352H174.059V18.9411C174.059 18.0587 174.412 17.2646 175.029 16.647C175.647 16.0293 176.441 15.6764 177.323 15.6764H185.529C188.353 15.6764 190.735 18.0587 190.735 20.8823V23.0882C190.735 24.4999 190.117 25.8235 189.235 26.794C188.264 27.7646 187.029 28.294 185.529 28.294L184.735 28.3823ZM131.176 15.7646H128L121.912 23.8823L115.823 15.7646H112.647L120.323 25.9999L112.647 36.2352H115.823L121.912 28.1176L128 36.2352H131.176L123.5 25.9999L131.176 15.7646ZM176.441 25.9999H185.441C186.235 25.9999 186.941 25.647 187.382 25.2058C187.912 24.6764 188.176 23.9705 188.176 23.2646V21.0587C188.176 19.4705 186.941 18.2352 185.353 18.2352H177.147C176.97 18.2352 176.706 18.3235 176.617 18.4999C176.529 18.6764 176.353 18.8529 176.353 19.0293V25.9999H176.441ZM157.382 24.7646H169.206V27.147H157.382V32.9705C157.382 33.4117 157.735 33.7646 158.176 33.7646C162.235 33.7646 166.294 33.7646 170.441 33.7646V36.147H158.176C156.411 36.147 155 34.7352 155 32.9705V18.9411C155 17.1764 156.411 15.7646 158.176 15.7646H169.823V18.147C165.764 18.147 162.235 18.147 158.176 18.147C157.735 18.147 157.382 18.4999 157.382 18.9411V24.7646ZM137.97 18.147C137.529 18.147 137.176 18.4999 137.176 18.9411V25.9999H146.176C147.676 25.9999 149 24.7646 149 23.1764V20.9705C149 19.3823 147.764 18.147 146.176 18.147H137.97Z" fill="black"/>
</svg>
