<svg width="1920" height="472" viewBox="0 0 1920 472" fill="none" xmlns="http://www.w3.org/2000/svg">
<g clip-path="url(#clip0_7176_2559)">
<path d="M644.337 451.474L636.687 472H631.827L632.969 451.474L602.159 423.831H601.575L570.765 451.474L571.934 472H567.047L559.424 451.474L585.666 423.831H584.284V411.563H593.102V387.505H589.756V381.264H592.943L591.482 340.185L558.867 287.661L528.057 277.013C525.587 278.447 522.745 279.243 519.717 279.243C510.846 279.243 503.383 272.313 502.772 263.444L497.088 201.944H469.837L455.867 172.761L450.847 162.299H436V139.17H445.88C445.163 137.046 444.791 134.762 444.791 132.372C444.791 120.423 454.486 110.731 466.464 110.731C478.443 110.731 488.137 120.423 488.137 132.372C488.137 134.762 487.765 137.046 487.048 139.17H552.386C551.669 137.046 551.297 134.762 551.297 132.372C551.297 120.423 560.991 110.731 572.97 110.731C584.948 110.731 594.643 120.423 594.643 132.372C594.643 134.762 594.271 137.046 593.554 139.17H603.434V162.299H588.561L583.567 172.761L569.597 201.944H542.32L537.22 257.496L569.198 268.516C570.978 269.126 572.465 270.162 573.634 271.463C574.298 272.1 574.909 272.817 575.413 273.641L610.791 330.599C611.694 332.086 612.226 333.706 612.332 335.326C612.332 335.671 612.385 336.016 612.385 336.388V336.707C612.385 336.707 612.385 336.866 612.385 336.919L610.791 381.264H613.979V387.505H610.632V411.563H619.45V423.831H618.069L644.337 451.474Z" fill="#F8F8F8"/>
<path d="M1752.02 139.17H1761.9V162.299H1747.05L1742.03 172.761L1728.06 201.944H1700.81L1695.13 263.444C1694.52 272.313 1687.05 279.243 1678.18 279.243C1672.58 279.243 1667.56 276.482 1664.45 272.233L1629.55 258.027L1591.17 299.239L1589.71 339.601H1592.92V345.841H1589.55V369.899H1598.37V382.167H1595.1L1615.66 409.81L1604.24 430.337H1599.35L1606.2 409.81L1581.08 382.167H1580.52L1555.37 409.81L1562.25 430.337H1557.36L1545.94 409.81L1566.5 382.167H1563.23V369.899H1572.05V345.841H1568.68V339.601H1571.89L1570.3 295.256C1570.3 295.07 1570.3 294.884 1570.3 294.698C1570.3 294.486 1570.35 294.273 1570.35 294.061C1570.35 293.583 1570.4 293.078 1570.51 292.6C1570.51 292.547 1570.51 292.494 1570.51 292.441C1570.85 290.502 1571.73 288.644 1573.19 287.077L1618.9 238.005C1619.33 237.553 1619.78 237.155 1620.26 236.81C1620.47 236.651 1620.68 236.518 1620.89 236.359C1621.32 236.093 1621.74 235.854 1622.19 235.642C1622.43 235.482 1622.7 235.376 1622.99 235.296C1623.23 235.19 1623.47 235.11 1623.71 235.031C1624.16 234.898 1624.58 234.818 1625.04 234.739C1625.59 234.632 1626.18 234.579 1626.76 234.579L1630.59 235.296C1630.59 235.296 1630.77 235.349 1630.85 235.376L1659.72 247.166L1655.58 201.944H1628.3L1614.33 172.761L1609.34 162.299H1594.47V139.17H1604.35C1603.63 137.046 1603.26 134.762 1603.26 132.372C1603.26 120.423 1612.98 110.731 1624.93 110.731C1636.88 110.731 1646.6 120.423 1646.6 132.372C1646.6 134.762 1646.23 137.046 1645.51 139.17H1710.85C1710.13 137.046 1709.76 134.762 1709.76 132.372C1709.76 120.423 1719.48 110.731 1731.44 110.731C1743.39 110.731 1753.11 120.423 1753.11 132.372C1753.11 134.762 1752.74 137.046 1752.02 139.17Z" fill="#F8F8F8"/>
<path d="M1956 0H-36V23.527H1956V0Z" fill="#F8F8F8"/>
<path d="M1956 105.181H-36V128.708H1956V105.181Z" fill="#F8F8F8"/>
<path d="M276.531 23.527H239.002V105.181H276.531V23.527Z" fill="#F8F8F8"/>
<path d="M744.678 23.527H707.149V105.181H744.678V23.527Z" fill="#F8F8F8"/>
<path d="M1212.85 23.527H1175.32V105.181H1212.85V23.527Z" fill="#F8F8F8"/>
<path d="M1681 23.527H1643.47V105.181H1681V23.527Z" fill="#F8F8F8"/>
<path d="M491.853 109.138L420.062 29.3158L348.297 109.138L271.645 24.1908L275.602 20.6326L348.297 101.198L420.062 21.3495L491.853 101.198L563.619 21.3495L635.384 101.198L709.752 18.9862L713.709 22.5445L635.384 109.138L563.619 29.3158L491.853 109.138Z" fill="#F8F8F8"/>
<path d="M959.177 109.138L887.385 29.3158L815.62 109.138L738.968 24.1908L742.925 20.6326L815.62 101.198L887.385 21.3495L959.177 101.198L1030.94 21.3495L1102.71 101.198L1177.07 18.9862L1181.03 22.5445L1102.71 109.138L1030.94 29.3158L959.177 109.138Z" fill="#F8F8F8"/>
<path d="M1426.5 109.138L1354.73 29.3158L1282.97 109.138L1206.29 24.1908L1210.25 20.6326L1282.94 101.198L1354.73 21.3495L1426.5 101.198L1498.26 21.3495L1570.06 101.198L1644.4 18.9862L1648.36 22.5445L1570.03 109.138L1498.26 29.3158L1426.5 109.138Z" fill="#F8F8F8"/>
<path d="M1956 32.0243V39.9905L1897.38 105.181L1893.82 109.138L1890.26 105.181L1822.06 29.3158L1753.85 105.181L1750.29 109.138L1746.73 105.181L1681 32.3695L1673.61 24.1908L1674.36 23.527L1677.57 20.6326L1680.17 23.527L1681 24.4298L1750.27 101.198L1820.09 23.527L1822.06 21.3495L1824.02 23.527L1893.82 101.198L1956 32.0243Z" fill="#F8F8F8"/>
<path d="M246.333 22.5445L245.456 23.527L239.002 30.6435L171.593 105.181L168.007 109.138L164.448 105.181L96.2422 29.3158L28.0362 105.181L24.4771 109.138L20.9181 105.181L-36 41.8759V33.9096L24.4771 101.198L94.2768 23.527L96.2422 21.3495L98.2077 23.527L168.034 101.198L238.285 23.527L242.402 18.9862L246.333 22.5445Z" fill="#F8F8F8"/>
</g>
<defs>
<clipPath id="clip0_7176_2559">
<rect width="1992" height="472" fill="white" transform="translate(-36)"/>
</clipPath>
</defs>
</svg>
